<svg width="86" height="45" viewBox="0 0 86 45" fill="none" xmlns="http://www.w3.org/2000/svg">
<rect width="86" height="45" rx="5" fill="black"/>
<path d="M8.22461 38.0781C8.17253 38.026 8.14648 37.9219 8.14648 37.7656C8.14648 37.4922 8.16602 37.3555 8.20508 37.3555C8.30924 37.3555 8.45898 37.3294 8.6543 37.2773C8.84961 37.2253 9.0319 37.1602 9.20117 37.082C9.37044 37.0039 9.4681 36.9323 9.49414 36.8672C9.54622 36.6849 9.57878 36.4701 9.5918 36.2227C9.61784 35.9753 9.63086 35.6888 9.63086 35.3633V28.293C9.63086 27.2773 9.57878 26.6784 9.47461 26.4961L9.37695 26.3203C9.32487 26.2682 9.1556 26.2292 8.86914 26.2031C8.58268 26.1641 8.25065 26.1445 7.87305 26.1445C7.33919 26.1445 6.90299 26.2943 6.56445 26.5938C6.22591 26.8802 5.96549 27.3685 5.7832 28.0586C5.75716 28.1237 5.69206 28.1562 5.58789 28.1562C5.30143 28.1562 5.11263 28.1107 5.02148 28.0195L5.39258 24.8359C5.67904 24.901 5.93294 24.9531 6.1543 24.9922C6.37565 25.0312 6.57096 25.0508 6.74023 25.0508C7.4043 25.0508 8.11393 25.0703 8.86914 25.1094C9.63737 25.1484 10.3535 25.168 11.0176 25.168C11.6816 25.168 12.3978 25.1484 13.166 25.1094C13.9342 25.0703 14.6504 25.0508 15.3145 25.0508C15.4837 25.0508 15.679 25.0312 15.9004 24.9922C16.1217 24.9531 16.3757 24.901 16.6621 24.8359L17.0332 28.0391C16.9421 28.1302 16.7533 28.1758 16.4668 28.1758C16.3626 28.1758 16.2975 28.1432 16.2715 28.0781C15.946 26.7891 15.2493 26.1445 14.1816 26.1445C13.14 26.1445 12.5866 26.2617 12.5215 26.4961C12.4694 26.6784 12.4303 26.9128 12.4043 27.1992C12.3783 27.4857 12.3652 27.8307 12.3652 28.2344V35.2852C12.3652 35.6107 12.3783 35.9036 12.4043 36.1641C12.4303 36.4245 12.4694 36.6589 12.5215 36.8672C12.5475 36.9193 12.6387 36.9844 12.7949 37.0625C12.9642 37.1406 13.14 37.2122 13.3223 37.2773C13.5176 37.3294 13.6543 37.3555 13.7324 37.3555C13.7845 37.3555 13.8105 37.4792 13.8105 37.7266C13.8105 37.8568 13.7975 37.974 13.7715 38.0781C13.7194 38.0781 13.5957 38.0716 13.4004 38.0586C13.2051 38.0456 12.9382 38.026 12.5996 38C12.2611 37.974 11.9616 37.9544 11.7012 37.9414C11.4408 37.9284 11.2259 37.9219 11.0566 37.9219C10.8223 37.9219 10.5033 37.9349 10.0996 37.9609C9.69596 37.987 9.31185 38.0065 8.94727 38.0195C8.5957 38.0456 8.35482 38.0651 8.22461 38.0781ZM15.8809 38.0781C15.8288 38.026 15.8027 37.9284 15.8027 37.7852C15.8027 37.5117 15.8158 37.375 15.8418 37.375C15.946 37.375 16.1022 37.3424 16.3105 37.2773C16.5189 37.2122 16.7207 37.1341 16.916 37.043C17.1243 36.9388 17.2546 36.8411 17.3066 36.75C17.4108 36.5938 17.5215 36.4049 17.6387 36.1836C17.7559 35.9492 17.8405 35.7604 17.8926 35.6172L17.9902 35.3828L22.3066 25.4609C22.4499 25.1224 22.6908 24.9531 23.0293 24.9531C23.2246 24.9531 23.3809 25.0378 23.498 25.207L27.502 35.1094C27.6191 35.4089 27.7298 35.6953 27.834 35.9688C27.9512 36.2292 28.0553 36.4766 28.1465 36.7109C28.1986 36.8411 28.3158 36.9583 28.498 37.0625C28.6803 37.1536 28.8757 37.2253 29.084 37.2773C29.3053 37.3294 29.4746 37.3555 29.5918 37.3555C29.6439 37.3555 29.6699 37.4661 29.6699 37.6875C29.6699 37.8958 29.6569 38.026 29.6309 38.0781L28.4395 38C28.0618 37.974 27.7363 37.9544 27.4629 37.9414C27.1895 37.9154 26.9681 37.9089 26.7988 37.9219L23.8496 38.0781C23.7975 38.026 23.7715 37.8893 23.7715 37.668C23.7715 37.4596 23.7975 37.3555 23.8496 37.3555C24.1361 37.3555 24.429 37.2969 24.7285 37.1797C25.028 37.0495 25.1777 36.8802 25.1777 36.6719C25.1777 36.6589 25.1387 36.5417 25.0605 36.3203C24.9954 36.099 24.8717 35.7799 24.6895 35.3633L24.1035 33.9375C24.0514 33.8854 24.0059 33.8594 23.9668 33.8594C23.8366 33.8464 23.6152 33.8398 23.3027 33.8398C22.9902 33.8398 22.5866 33.8398 22.0918 33.8398C21.6621 33.8398 21.278 33.8398 20.9395 33.8398C20.6139 33.8398 20.3405 33.8464 20.1191 33.8594C20.0671 33.8594 20.0215 33.8919 19.9824 33.957L19.3379 35.4414C19.1165 35.9622 18.9863 36.3398 18.9473 36.5742C18.9212 36.8086 19.0384 36.9909 19.2988 37.1211C19.5332 37.2383 19.735 37.3099 19.9043 37.3359C20.0866 37.349 20.2428 37.3555 20.373 37.3555C20.4121 37.3685 20.4316 37.4727 20.4316 37.668C20.4316 37.8372 20.4186 37.974 20.3926 38.0781C19.8066 38.0391 19.377 38.0065 19.1035 37.9805C18.8431 37.9544 18.6478 37.9414 18.5176 37.9414C18.3874 37.9284 18.2441 37.9284 18.0879 37.9414C17.9447 37.9544 17.7103 37.974 17.3848 38C17.0592 38.013 16.5579 38.0391 15.8809 38.0781ZM22.0918 32.668C22.3522 32.668 22.5931 32.668 22.8145 32.668C23.0488 32.6549 23.2702 32.6419 23.4785 32.6289L23.5371 32.5312L22.1309 29.0352L20.6074 32.5312C20.6074 32.5833 20.6204 32.6094 20.6465 32.6094C21.0371 32.6484 21.5189 32.668 22.0918 32.668ZM33.459 38.0781C33.4069 38.026 33.3809 37.9219 33.3809 37.7656C33.3809 37.4922 33.4004 37.3555 33.4395 37.3555C33.5436 37.3555 33.6934 37.3294 33.8887 37.2773C34.084 37.2253 34.2663 37.1602 34.4355 37.082C34.6048 37.0039 34.7025 36.9323 34.7285 36.8672C34.8197 36.5417 34.8652 36.0143 34.8652 35.2852V31.9648C34.8652 31.8607 34.6634 31.444 34.2598 30.7148L33.0293 28.5469L32.4238 27.5117C32.2025 27.1211 32.0072 26.8086 31.8379 26.5742C31.6686 26.3268 31.5124 26.1641 31.3691 26.0859C31.0436 25.8906 30.6986 25.793 30.334 25.793C30.2819 25.793 30.2559 25.6823 30.2559 25.4609C30.2559 25.2526 30.2819 25.1224 30.334 25.0703C30.8288 25.0964 31.3236 25.1224 31.8184 25.1484C32.3132 25.1745 32.7428 25.1875 33.1074 25.1875C33.4069 25.1875 34.3379 25.1484 35.9004 25.0703C35.9264 25.0964 35.9395 25.1745 35.9395 25.3047C35.9395 25.4219 35.9329 25.5326 35.9199 25.6367C35.9069 25.7409 35.8874 25.793 35.8613 25.793C35.666 25.793 35.4447 25.832 35.1973 25.9102C34.9629 25.9753 34.8392 26.0729 34.8262 26.2031C34.8262 26.3073 34.8783 26.4505 34.9824 26.6328L36.9355 30.0898C37.0137 30.1549 37.0788 30.1419 37.1309 30.0508C37.3262 29.7773 37.541 29.4453 37.7754 29.0547C38.0228 28.6641 38.2572 28.2734 38.4785 27.8828C38.6999 27.4922 38.8822 27.1471 39.0254 26.8477C39.1816 26.5352 39.2598 26.3268 39.2598 26.2227C39.2598 25.9362 38.8431 25.793 38.0098 25.793C37.9837 25.793 37.9577 25.7409 37.9316 25.6367C37.9186 25.5326 37.9186 25.4219 37.9316 25.3047C37.9447 25.1745 37.9642 25.0964 37.9902 25.0703C39.1621 25.1484 39.9499 25.1875 40.3535 25.1875C40.6921 25.1875 41.4277 25.1484 42.5605 25.0703C42.5996 25.1875 42.6191 25.3047 42.6191 25.4219C42.6191 25.6562 42.5931 25.7734 42.541 25.7734C42.3066 25.7734 42.0397 25.832 41.7402 25.9492C41.4408 26.0664 41.1999 26.2422 41.0176 26.4766C40.8874 26.6589 40.6855 26.9583 40.4121 27.375C40.1387 27.7786 39.8392 28.2344 39.5137 28.7422C39.2012 29.25 38.8952 29.7448 38.5957 30.2266C38.3092 30.7083 38.0684 31.1185 37.873 31.457C37.6908 31.7956 37.5996 31.9974 37.5996 32.0625V35.168C37.5996 35.5326 37.6126 35.8581 37.6387 36.1445C37.6647 36.418 37.7038 36.6589 37.7559 36.8672C37.7819 36.9193 37.873 36.9844 38.0293 37.0625C38.1986 37.1406 38.3743 37.2122 38.5566 37.2773C38.752 37.3294 38.8887 37.3555 38.9668 37.3555C39.0189 37.3555 39.0449 37.4792 39.0449 37.7266C39.0449 37.8568 39.0319 37.974 39.0059 38.0781C38.9538 38.0781 38.8301 38.0716 38.6348 38.0586C38.4395 38.0456 38.1725 38.026 37.834 38C37.4954 37.974 37.196 37.9544 36.9355 37.9414C36.6751 37.9284 36.4603 37.9219 36.291 37.9219C36.0566 37.9219 35.7376 37.9349 35.334 37.9609C34.9303 37.987 34.5462 38.0065 34.1816 38.0195C33.8301 38.0456 33.5892 38.0651 33.459 38.0781ZM43.3027 38.0781C43.2507 38.026 43.2246 37.9154 43.2246 37.7461C43.2246 37.4857 43.2507 37.3555 43.3027 37.3555C43.4069 37.3555 43.5566 37.3359 43.752 37.2969C43.9473 37.2578 44.1296 37.2057 44.2988 37.1406C44.4681 37.0625 44.5658 36.9909 44.5918 36.9258C44.6699 36.6263 44.709 36.0534 44.709 35.207V27.7461C44.709 26.9518 44.6569 26.4635 44.5527 26.2812C44.5137 26.2031 44.4095 26.1315 44.2402 26.0664C44.084 25.9883 43.9212 25.9232 43.752 25.8711C43.5827 25.819 43.446 25.793 43.3418 25.793C43.2897 25.793 43.2637 25.6823 43.2637 25.4609C43.2637 25.2266 43.2767 25.0964 43.3027 25.0703L46.1348 25.1875C46.265 25.2005 46.5579 25.194 47.0137 25.168C47.4694 25.1419 48.0879 25.1094 48.8691 25.0703C48.9082 25.1875 48.9277 25.3047 48.9277 25.4219C48.9277 25.6693 48.9017 25.793 48.8496 25.793C48.7715 25.793 48.6348 25.819 48.4395 25.8711C48.2441 25.9232 48.0553 25.9883 47.873 26.0664C47.7038 26.1315 47.6061 26.1966 47.5801 26.2617C47.528 26.431 47.4889 26.6523 47.4629 26.9258C47.4499 27.1862 47.4434 27.4857 47.4434 27.8242V35.2266C47.4434 35.8516 47.4954 36.3203 47.5996 36.6328C47.6517 36.8411 48.0944 36.9453 48.9277 36.9453H49.4355C50.2428 36.9453 50.972 36.776 51.623 36.4375C51.8444 36.3203 52.0918 36.099 52.3652 35.7734C52.6517 35.4479 52.873 35.0833 53.0293 34.6797C53.0553 34.6016 53.1465 34.5625 53.3027 34.5625C53.6152 34.5625 53.8105 34.6016 53.8887 34.6797C53.2376 36.4766 52.8861 37.5964 52.834 38.0391C52.4694 38.0391 51.9941 38.0326 51.4082 38.0195C50.8353 38.0195 50.1517 38.013 49.3574 38C48.5632 37.987 47.8991 37.974 47.3652 37.9609C46.8444 37.9479 46.4408 37.9479 46.1543 37.9609L43.3027 38.0781ZM56.8379 36.2617C55.6009 34.9596 54.9824 33.4036 54.9824 31.5938C54.9824 30.6823 55.1452 29.8294 55.4707 29.0352C55.7962 28.2279 56.2454 27.5247 56.8184 26.9258C57.4043 26.3138 58.0749 25.8385 58.8301 25.5C59.5853 25.1484 60.3926 24.9727 61.252 24.9727C62.1113 24.9727 62.9186 25.1484 63.6738 25.5C64.4421 25.8385 65.1126 26.3138 65.6855 26.9258C66.2585 27.5247 66.7077 28.2279 67.0332 29.0352C67.3717 29.8294 67.541 30.6823 67.541 31.5938C67.541 33.4036 66.9225 34.9596 65.6855 36.2617C64.8392 37.1471 63.8887 37.7331 62.834 38.0195C61.7793 38.319 60.7246 38.319 59.6699 38.0195C58.6283 37.7331 57.6842 37.1471 56.8379 36.2617ZM61.5645 37.1016C62.2155 37.1016 62.7559 36.8737 63.1855 36.418C63.6283 35.9622 63.9538 35.3503 64.1621 34.582C64.3835 33.8008 64.4941 32.9284 64.4941 31.9648C64.4941 31.2487 64.4355 30.5651 64.3184 29.9141C64.2142 29.263 64.0384 28.638 63.791 28.0391C63.5436 27.4271 63.179 26.9453 62.6973 26.5938C62.2155 26.2422 61.6361 26.0664 60.959 26.0664C60.2689 26.0664 59.696 26.3138 59.2402 26.8086C58.7845 27.3164 58.4655 27.9349 58.2832 28.6641C58.1139 29.3932 58.0293 30.2266 58.0293 31.1641C58.0293 32.4922 58.2832 33.7747 58.791 35.0117C59.0514 35.6367 59.416 36.1445 59.8848 36.5352C60.3665 36.9128 60.9264 37.1016 61.5645 37.1016ZM80.5879 38.1367C79.9499 38.1367 79.3639 38.0781 78.8301 37.9609C78.3092 37.8307 77.8926 37.6875 77.5801 37.5312C77.2546 37.375 76.9355 37.1406 76.623 36.8281C76.4668 36.6719 76.3236 36.5221 76.1934 36.3789C76.0632 36.2357 75.9199 36.0599 75.7637 35.8516C75.6204 35.6302 75.4316 35.3438 75.1973 34.9922C74.9629 34.6276 74.6569 34.1458 74.2793 33.5469C73.7715 32.7786 73.4329 32.362 73.2637 32.2969C73.2376 32.2839 73.166 32.2773 73.0488 32.2773C72.9316 32.2773 72.873 32.3815 72.873 32.5898V35.2461C72.873 35.9362 72.9186 36.4701 73.0098 36.8477C73.0358 36.9518 73.1465 37.043 73.3418 37.1211C73.5371 37.1992 73.752 37.2578 73.9863 37.2969C74.2207 37.3359 74.403 37.3555 74.5332 37.3555C74.5853 37.3555 74.6113 37.4792 74.6113 37.7266C74.6113 37.8568 74.5983 37.974 74.5723 38.0781C73.791 38.0391 73.153 38.0065 72.6582 37.9805C72.1634 37.9544 71.8053 37.9479 71.584 37.9609L68.7324 38.0781C68.6803 38.026 68.6543 37.9154 68.6543 37.7461C68.6543 37.4857 68.6803 37.3555 68.7324 37.3555C68.8366 37.3555 68.9863 37.3359 69.1816 37.2969C69.377 37.2578 69.5592 37.2057 69.7285 37.1406C69.8978 37.0625 69.9954 36.9909 70.0215 36.9258C70.0996 36.6263 70.1387 36.0534 70.1387 35.207V27.8242C70.1387 27.0951 70.0996 26.5872 70.0215 26.3008C69.9954 26.2227 69.8913 26.1445 69.709 26.0664C69.5397 25.9753 69.3574 25.9036 69.1621 25.8516C68.9668 25.7865 68.8171 25.7539 68.7129 25.7539C68.6608 25.7539 68.6348 25.6367 68.6348 25.4023C68.6348 25.194 68.6543 25.0703 68.6934 25.0312C69.2923 25.0573 69.8262 25.0833 70.2949 25.1094C70.7767 25.1224 71.1999 25.1289 71.5645 25.1289C72.1895 25.1159 72.6777 25.1094 73.0293 25.1094C73.3809 25.1094 73.6478 25.1094 73.8301 25.1094C74.0124 25.1094 74.1686 25.1094 74.2988 25.1094C74.8197 25.1094 75.3405 25.1745 75.8613 25.3047C76.3952 25.4349 76.8835 25.6367 77.3262 25.9102C77.7689 26.1706 78.1204 26.5091 78.3809 26.9258C78.6543 27.3294 78.791 27.8177 78.791 28.3906C78.791 28.9635 78.6738 29.4974 78.4395 29.9922C78.2051 30.487 77.8991 30.9036 77.5215 31.2422C77.1569 31.5807 76.7793 31.8151 76.3887 31.9453C76.2845 31.9844 76.265 32.056 76.3301 32.1602C76.6165 32.6419 76.8379 33.0065 76.9941 33.2539C77.1504 33.5013 77.2806 33.7031 77.3848 33.8594C77.502 34.0026 77.6387 34.1849 77.7949 34.4062C77.9512 34.6146 78.1725 34.9336 78.459 35.3633C78.6803 35.6758 78.9408 35.9883 79.2402 36.3008C79.5527 36.6003 79.8848 36.8542 80.2363 37.0625C80.6009 37.2578 80.946 37.3555 81.2715 37.3555C81.3236 37.4076 81.3496 37.5247 81.3496 37.707C81.3496 37.8633 81.3236 37.9935 81.2715 38.0977C81.1803 38.1107 81.0762 38.1172 80.959 38.1172C80.8548 38.1302 80.7311 38.1367 80.5879 38.1367ZM73.6934 31.2031H74.2207C74.7285 31.2031 75.1191 30.9818 75.3926 30.5391C75.679 30.0964 75.8223 29.5104 75.8223 28.7812C75.8223 27.0495 75.2168 26.1836 74.0059 26.1836C73.5501 26.1836 73.2507 26.2357 73.1074 26.3398C72.9512 26.457 72.873 27.0951 72.873 28.2539V30.3633C72.873 30.7279 72.9447 30.9622 73.0879 31.0664C73.2441 31.1576 73.446 31.2031 73.6934 31.2031Z" fill="#DEE2E6"/>
<path d="M12.3848 19.0781C12.3327 19.026 12.3066 18.9284 12.3066 18.7852C12.3066 18.5117 12.3197 18.375 12.3457 18.375C12.4499 18.375 12.6061 18.3424 12.8145 18.2773C13.0228 18.2122 13.2246 18.1341 13.4199 18.043C13.6283 17.9388 13.7585 17.8411 13.8105 17.75C13.9147 17.5938 14.0254 17.4049 14.1426 17.1836C14.2598 16.9492 14.3444 16.7604 14.3965 16.6172L14.4941 16.3828L18.8105 6.46094C18.9538 6.1224 19.1947 5.95312 19.5332 5.95312C19.7285 5.95312 19.8848 6.03776 20.002 6.20703L24.0059 16.1094C24.123 16.4089 24.2337 16.6953 24.3379 16.9688C24.4551 17.2292 24.5592 17.4766 24.6504 17.7109C24.7025 17.8411 24.8197 17.9583 25.002 18.0625C25.1842 18.1536 25.3796 18.2253 25.5879 18.2773C25.8092 18.3294 25.9785 18.3555 26.0957 18.3555C26.1478 18.3555 26.1738 18.4661 26.1738 18.6875C26.1738 18.8958 26.1608 19.026 26.1348 19.0781L24.9434 19C24.5658 18.974 24.2402 18.9544 23.9668 18.9414C23.6934 18.9154 23.472 18.9089 23.3027 18.9219L20.3535 19.0781C20.3014 19.026 20.2754 18.8893 20.2754 18.668C20.2754 18.4596 20.3014 18.3555 20.3535 18.3555C20.64 18.3555 20.9329 18.2969 21.2324 18.1797C21.5319 18.0495 21.6816 17.8802 21.6816 17.6719C21.6816 17.6589 21.6426 17.5417 21.5645 17.3203C21.4993 17.099 21.3757 16.7799 21.1934 16.3633L20.6074 14.9375C20.5553 14.8854 20.5098 14.8594 20.4707 14.8594C20.3405 14.8464 20.1191 14.8398 19.8066 14.8398C19.4941 14.8398 19.0905 14.8398 18.5957 14.8398C18.166 14.8398 17.7819 14.8398 17.4434 14.8398C17.1178 14.8398 16.8444 14.8464 16.623 14.8594C16.571 14.8594 16.5254 14.8919 16.4863 14.957L15.8418 16.4414C15.6204 16.9622 15.4902 17.3398 15.4512 17.5742C15.4251 17.8086 15.5423 17.9909 15.8027 18.1211C16.0371 18.2383 16.2389 18.3099 16.4082 18.3359C16.5905 18.349 16.7467 18.3555 16.877 18.3555C16.916 18.3685 16.9355 18.4727 16.9355 18.668C16.9355 18.8372 16.9225 18.974 16.8965 19.0781C16.3105 19.0391 15.8809 19.0065 15.6074 18.9805C15.347 18.9544 15.1517 18.9414 15.0215 18.9414C14.8913 18.9284 14.748 18.9284 14.5918 18.9414C14.4486 18.9544 14.2142 18.974 13.8887 19C13.5632 19.013 13.0618 19.0391 12.3848 19.0781ZM18.5957 13.668C18.8561 13.668 19.097 13.668 19.3184 13.668C19.5527 13.6549 19.7741 13.6419 19.9824 13.6289L20.041 13.5312L18.6348 10.0352L17.1113 13.5312C17.1113 13.5833 17.1243 13.6094 17.1504 13.6094C17.541 13.6484 18.0228 13.668 18.5957 13.668ZM26.7402 19.0781C26.6882 19.026 26.6621 18.9219 26.6621 18.7656C26.6621 18.4922 26.6816 18.3555 26.7207 18.3555C26.8249 18.3555 26.9746 18.3294 27.1699 18.2773C27.3652 18.2253 27.5475 18.1602 27.7168 18.082C27.8861 18.0039 27.9837 17.9323 28.0098 17.8672C28.0618 17.6849 28.0944 17.4635 28.1074 17.2031C28.1335 16.9427 28.1465 16.6432 28.1465 16.3047V8.80469C28.1465 7.97135 28.0944 7.46354 27.9902 7.28125C27.9512 7.20312 27.847 7.13151 27.6777 7.06641C27.5215 6.98828 27.3587 6.92318 27.1895 6.87109C27.0202 6.81901 26.8835 6.79297 26.7793 6.79297C26.7272 6.79297 26.7012 6.68229 26.7012 6.46094C26.7012 6.22656 26.7142 6.09635 26.7402 6.07031L27.6777 6.12891C27.9642 6.15495 28.1986 6.17448 28.3809 6.1875C28.5632 6.20052 28.7389 6.20703 28.9082 6.20703C29.0905 6.19401 29.3118 6.1875 29.5723 6.1875C29.8327 6.1875 30.7441 6.14844 32.3066 6.07031C32.3457 6.1875 32.3652 6.30469 32.3652 6.42188C32.3652 6.66927 32.3392 6.79297 32.2871 6.79297C32.209 6.79297 32.0723 6.81901 31.877 6.87109C31.6816 6.92318 31.4928 6.98828 31.3105 7.06641C31.1413 7.13151 31.0436 7.19661 31.0176 7.26172C30.9785 7.41797 30.946 7.63932 30.9199 7.92578C30.8939 8.19922 30.8809 8.43359 30.8809 8.62891V16.1484C30.8809 16.513 30.8939 16.8385 30.9199 17.125C30.946 17.4115 30.985 17.6589 31.0371 17.8672C31.0632 17.9193 31.1543 17.9844 31.3105 18.0625C31.4798 18.1406 31.6556 18.2122 31.8379 18.2773C32.0332 18.3294 32.1699 18.3555 32.248 18.3555C32.3001 18.3555 32.3262 18.4792 32.3262 18.7266C32.3262 18.8568 32.3132 18.974 32.2871 19.0781C32.235 19.0781 32.1113 19.0716 31.916 19.0586C31.7207 19.0456 31.4538 19.026 31.1152 19C30.7767 18.974 30.4772 18.9544 30.2168 18.9414C29.9564 18.9284 29.7415 18.9219 29.5723 18.9219C29.3379 18.9219 29.0189 18.9349 28.6152 18.9609C28.2116 18.987 27.8275 19.0065 27.4629 19.0195C27.1113 19.0456 26.8704 19.0651 26.7402 19.0781ZM33.5176 19.0781C33.4655 19.026 33.4395 18.9154 33.4395 18.7461C33.4395 18.4857 33.4655 18.3555 33.5176 18.3555C33.6217 18.3555 33.7715 18.3359 33.9668 18.2969C34.1621 18.2578 34.3444 18.2057 34.5137 18.1406C34.6829 18.0625 34.7806 17.9909 34.8066 17.9258C34.8848 17.6263 34.9238 17.0534 34.9238 16.207V8.82422C34.9238 8.09505 34.8848 7.58724 34.8066 7.30078C34.7806 7.22266 34.6764 7.14453 34.4941 7.06641C34.3249 6.97526 34.1426 6.90365 33.9473 6.85156C33.752 6.78646 33.6022 6.75391 33.498 6.75391C33.446 6.75391 33.4199 6.63672 33.4199 6.40234C33.4199 6.19401 33.4395 6.07031 33.4785 6.03125C33.9993 6.05729 34.4941 6.08333 34.9629 6.10938C35.4447 6.1224 35.9069 6.12891 36.3496 6.12891H39.748C40.8027 6.12891 41.7467 6.29818 42.5801 6.63672C43.4264 6.97526 44.1426 7.4375 44.7285 8.02344C45.3145 8.60938 45.7572 9.27995 46.0566 10.0352C46.3691 10.7904 46.5254 11.5911 46.5254 12.4375C46.5254 13.6875 46.252 14.8138 45.7051 15.8164C45.1582 16.806 44.377 17.5938 43.3613 18.1797C42.3457 18.7656 41.1348 19.0586 39.7285 19.0586C39.5983 19.0586 39.403 19.0521 39.1426 19.0391C38.8952 19.0391 38.5827 19.0326 38.2051 19.0195C37.8275 18.9935 37.4824 18.974 37.1699 18.9609C36.8574 18.9479 36.5905 18.9479 36.3691 18.9609L33.5176 19.0781ZM40.041 17.9648C41.1348 17.9648 41.9811 17.4961 42.5801 16.5586C43.179 15.6211 43.4785 14.2214 43.4785 12.3594C43.4785 11.3958 43.3353 10.5299 43.0488 9.76172C42.7624 8.98047 42.3522 8.36198 41.8184 7.90625C41.2975 7.45052 40.6595 7.22266 39.9043 7.22266H39.8066C38.6999 7.22266 38.0684 7.32682 37.9121 7.53516C37.7428 7.75651 37.6582 8.16667 37.6582 8.76562V16.3438C37.6582 17.1901 37.7168 17.6458 37.834 17.7109C38.1204 17.8802 38.8561 17.9648 40.041 17.9648ZM47.6582 19.0781C47.6061 19.026 47.5801 18.9154 47.5801 18.7461C47.5801 18.4857 47.6061 18.3555 47.6582 18.3555C47.7624 18.3555 47.9121 18.3359 48.1074 18.2969C48.3027 18.2578 48.485 18.2057 48.6543 18.1406C48.8236 18.0625 48.9212 17.9909 48.9473 17.9258C49.0254 17.6263 49.0645 17.0534 49.0645 16.207V8.82422C49.0645 8.09505 49.0254 7.58724 48.9473 7.30078C48.9212 7.22266 48.8171 7.14453 48.6348 7.06641C48.4655 6.97526 48.2832 6.90365 48.0879 6.85156C47.8926 6.78646 47.7428 6.75391 47.6387 6.75391C47.5866 6.75391 47.5605 6.63672 47.5605 6.40234C47.5605 6.19401 47.5801 6.07031 47.6191 6.03125C48.14 6.05729 48.6348 6.08333 49.1035 6.10938C49.5853 6.1224 50.0475 6.12891 50.4902 6.12891C51.0632 6.12891 52.0723 6.10938 53.5176 6.07031C54.2467 6.05729 54.8848 6.05078 55.4316 6.05078C55.9785 6.03776 56.4342 6.03125 56.7988 6.03125C56.8118 6.09635 56.8639 6.36979 56.9551 6.85156C57.0462 7.33333 57.1829 8.02344 57.3652 8.92188C57.3001 8.98698 57.1504 9.01953 56.916 9.01953C56.7728 9.01953 56.6816 8.97396 56.6426 8.88281C56.4863 8.54427 56.252 8.24479 55.9395 7.98438C55.64 7.71094 55.3079 7.49609 54.9434 7.33984C54.5918 7.17057 54.2467 7.08594 53.9082 7.08594H53.166C52.3327 7.08594 51.9095 7.17057 51.8965 7.33984C51.8704 7.49609 51.8444 7.70443 51.8184 7.96484C51.8053 8.21224 51.7988 8.51172 51.7988 8.86328V11.8711C51.7988 11.9492 52.0788 11.9883 52.6387 11.9883H53.6738C54.4941 11.9883 54.9368 11.9622 55.002 11.9102C55.0671 11.8451 55.1191 11.6562 55.1582 11.3438C55.1842 11.1354 55.2233 10.9466 55.2754 10.7773C55.2884 10.6862 55.3861 10.6406 55.5684 10.6406C55.7897 10.6406 55.9329 10.6732 55.998 10.7383V14.4297C55.946 14.4818 55.8092 14.5078 55.5879 14.5078C55.4186 14.5078 55.3145 14.4557 55.2754 14.3516C55.1191 13.8438 55.015 13.5312 54.9629 13.4141C54.9108 13.3229 54.8717 13.2839 54.8457 13.2969C54.8327 13.2969 54.7936 13.2708 54.7285 13.2188C54.5462 13.1146 54.0384 13.0625 53.2051 13.0625C52.2676 13.0625 51.7988 13.1211 51.7988 13.2383V16.2461C51.7988 16.8581 51.8509 17.3203 51.9551 17.6328C52.0072 17.8411 52.4499 17.9453 53.2832 17.9453H53.791C54.5983 17.9453 55.3275 17.776 55.9785 17.4375C56.1999 17.3203 56.4473 17.099 56.7207 16.7734C57.0072 16.4479 57.2285 16.0833 57.3848 15.6797C57.4108 15.6016 57.502 15.5625 57.6582 15.5625C57.9707 15.5625 58.166 15.6016 58.2441 15.6797C57.5931 17.4766 57.2415 18.5964 57.1895 19.0391C56.8639 19.0391 56.4342 19.0326 55.9004 19.0195C55.3796 19.0195 54.7546 19.013 54.0254 19C53.3092 18.987 52.6582 18.974 52.0723 18.9609C51.4863 18.9349 50.9655 18.9349 50.5098 18.9609L47.6582 19.0781ZM70.998 19.0977C70.8548 19.0977 70.653 18.9479 70.3926 18.6484L62.4434 8.76562V16.2461C62.4434 16.9362 62.4954 17.3984 62.5996 17.6328C62.6777 17.776 62.834 17.9062 63.0684 18.0234C63.3027 18.1276 63.5436 18.2057 63.791 18.2578C64.0384 18.3099 64.2272 18.3359 64.3574 18.3359C64.3835 18.3359 64.403 18.3945 64.416 18.5117C64.429 18.6159 64.4355 18.7266 64.4355 18.8438C64.4355 18.9609 64.4225 19.0391 64.3965 19.0781C63.7715 19.0781 63.2376 19.0521 62.7949 19C62.3652 18.9479 62.0202 18.9219 61.7598 18.9219C61.4473 18.9219 61.1999 18.9284 61.0176 18.9414C60.8353 18.9544 60.627 18.974 60.3926 19C60.1712 19.026 59.8197 19.0521 59.3379 19.0781C59.2988 19.0391 59.2793 18.9219 59.2793 18.7266C59.2793 18.4792 59.2988 18.3555 59.3379 18.3555C59.6374 18.3555 59.9499 18.2969 60.2754 18.1797C60.6139 18.0495 60.8548 17.8607 60.998 17.6133C61.1283 17.4049 61.1934 16.9297 61.1934 16.1875V8.51172C61.1934 7.83464 61.0957 7.3724 60.9004 7.125C60.8613 7.0599 60.7376 7.00781 60.5293 6.96875C60.334 6.91667 60.1191 6.8776 59.8848 6.85156C59.6634 6.8125 59.4876 6.79297 59.3574 6.79297C59.3314 6.79297 59.3053 6.74089 59.2793 6.63672C59.2663 6.53255 59.2598 6.42188 59.2598 6.30469C59.2728 6.17448 59.2923 6.09635 59.3184 6.07031L60.5684 6.14844C60.8678 6.17448 61.1348 6.19401 61.3691 6.20703C61.6165 6.22005 61.8249 6.22656 61.9941 6.22656C62.2155 6.22656 62.4824 6.21354 62.7949 6.1875C63.1204 6.16146 63.4915 6.1224 63.9082 6.07031C64.1686 6.59115 64.5267 7.16406 64.9824 7.78906C65.4512 8.41406 65.972 9.07812 66.5449 9.78125C67.1309 10.4714 67.7298 11.1875 68.3418 11.9297C68.9668 12.6719 69.5592 13.4141 70.1191 14.1562C70.1322 14.1042 70.1387 14.013 70.1387 13.8828C70.1517 13.7526 70.1582 13.5768 70.1582 13.3555V8.76562C70.1582 8.01042 70.0736 7.54167 69.9043 7.35938C69.8262 7.25521 69.6829 7.16406 69.4746 7.08594C69.2793 6.99479 69.071 6.92318 68.8496 6.87109C68.6413 6.81901 68.485 6.79297 68.3809 6.79297C68.3548 6.79297 68.3288 6.74089 68.3027 6.63672C68.2897 6.53255 68.2832 6.42188 68.2832 6.30469C68.2832 6.17448 68.2962 6.09635 68.3223 6.07031C68.9212 6.1224 69.4355 6.16146 69.8652 6.1875C70.2949 6.21354 70.64 6.22656 70.9004 6.22656C71.1217 6.22656 71.4017 6.21354 71.7402 6.1875C72.0788 6.16146 72.3978 6.13542 72.6973 6.10938C73.0098 6.08333 73.2181 6.07031 73.3223 6.07031C73.3743 6.16146 73.4004 6.27865 73.4004 6.42188C73.4004 6.66927 73.3678 6.79297 73.3027 6.79297C72.5996 6.79297 72.0592 7.00781 71.6816 7.4375C71.4993 7.65885 71.4082 8.13411 71.4082 8.86328V16.2852C71.4082 16.5195 71.4147 16.8646 71.4277 17.3203C71.4408 17.776 71.4603 18.3424 71.4863 19.0195C71.4342 19.0716 71.2715 19.0977 70.998 19.0977Z" fill="#DEE2E6"/>
</svg>
