<svg width="32" height="32" viewBox="0 0 32 32" fill="none" xmlns="http://www.w3.org/2000/svg">
<circle cx="16" cy="16" r="15.5" stroke="black"/>
<path d="M3.29297 22.0781C3.24089 22.026 3.21484 21.9284 3.21484 21.7852C3.21484 21.5117 3.22786 21.375 3.25391 21.375C3.35807 21.375 3.51432 21.3424 3.72266 21.2773C3.93099 21.2122 4.13281 21.1341 4.32812 21.043C4.53646 20.9388 4.66667 20.8411 4.71875 20.75C4.82292 20.5938 4.93359 20.4049 5.05078 20.1836C5.16797 19.9492 5.2526 19.7604 5.30469 19.6172L5.40234 19.3828L9.71875 9.46094C9.86198 9.1224 10.1029 8.95312 10.4414 8.95312C10.6367 8.95312 10.793 9.03776 10.9102 9.20703L14.9141 19.1094C15.0312 19.4089 15.1419 19.6953 15.2461 19.9688C15.3633 20.2292 15.4674 20.4766 15.5586 20.7109C15.6107 20.8411 15.7279 20.9583 15.9102 21.0625C16.0924 21.1536 16.2878 21.2253 16.4961 21.2773C16.7174 21.3294 16.8867 21.3555 17.0039 21.3555C17.056 21.3555 17.082 21.4661 17.082 21.6875C17.082 21.8958 17.069 22.026 17.043 22.0781L15.8516 22C15.474 21.974 15.1484 21.9544 14.875 21.9414C14.6016 21.9154 14.3802 21.9089 14.2109 21.9219L11.2617 22.0781C11.2096 22.026 11.1836 21.8893 11.1836 21.668C11.1836 21.4596 11.2096 21.3555 11.2617 21.3555C11.5482 21.3555 11.8411 21.2969 12.1406 21.1797C12.4401 21.0495 12.5898 20.8802 12.5898 20.6719C12.5898 20.6589 12.5508 20.5417 12.4727 20.3203C12.4076 20.099 12.2839 19.7799 12.1016 19.3633L11.5156 17.9375C11.4635 17.8854 11.418 17.8594 11.3789 17.8594C11.2487 17.8464 11.0273 17.8398 10.7148 17.8398C10.4023 17.8398 9.9987 17.8398 9.50391 17.8398C9.07422 17.8398 8.6901 17.8398 8.35156 17.8398C8.02604 17.8398 7.7526 17.8464 7.53125 17.8594C7.47917 17.8594 7.43359 17.8919 7.39453 17.957L6.75 19.4414C6.52865 19.9622 6.39844 20.3398 6.35938 20.5742C6.33333 20.8086 6.45052 20.9909 6.71094 21.1211C6.94531 21.2383 7.14714 21.3099 7.31641 21.3359C7.4987 21.349 7.65495 21.3555 7.78516 21.3555C7.82422 21.3685 7.84375 21.4727 7.84375 21.668C7.84375 21.8372 7.83073 21.974 7.80469 22.0781C7.21875 22.0391 6.78906 22.0065 6.51562 21.9805C6.25521 21.9544 6.0599 21.9414 5.92969 21.9414C5.79948 21.9284 5.65625 21.9284 5.5 21.9414C5.35677 21.9544 5.1224 21.974 4.79688 22C4.47135 22.013 3.97005 22.0391 3.29297 22.0781ZM9.50391 16.668C9.76432 16.668 10.0052 16.668 10.2266 16.668C10.4609 16.6549 10.6823 16.6419 10.8906 16.6289L10.9492 16.5312L9.54297 13.0352L8.01953 16.5312C8.01953 16.5833 8.03255 16.6094 8.05859 16.6094C8.44922 16.6484 8.93099 16.668 9.50391 16.668ZM19.1719 22.0781C19.1198 22.026 19.0938 21.9219 19.0938 21.7656C19.0938 21.4922 19.1133 21.3555 19.1523 21.3555C19.2565 21.3555 19.4062 21.3294 19.6016 21.2773C19.7969 21.2253 19.9792 21.1602 20.1484 21.082C20.3177 21.0039 20.4154 20.9323 20.4414 20.8672C20.4935 20.6849 20.526 20.4701 20.5391 20.2227C20.5651 19.9753 20.5781 19.6888 20.5781 19.3633V12.293C20.5781 11.2773 20.526 10.6784 20.4219 10.4961L20.3242 10.3203C20.2721 10.2682 20.1029 10.2292 19.8164 10.2031C19.5299 10.1641 19.1979 10.1445 18.8203 10.1445C18.2865 10.1445 17.8503 10.2943 17.5117 10.5938C17.1732 10.8802 16.9128 11.3685 16.7305 12.0586C16.7044 12.1237 16.6393 12.1562 16.5352 12.1562C16.2487 12.1562 16.0599 12.1107 15.9688 12.0195L16.3398 8.83594C16.6263 8.90104 16.8802 8.95312 17.1016 8.99219C17.3229 9.03125 17.5182 9.05078 17.6875 9.05078C18.3516 9.05078 19.0612 9.07031 19.8164 9.10938C20.5846 9.14844 21.3008 9.16797 21.9648 9.16797C22.6289 9.16797 23.3451 9.14844 24.1133 9.10938C24.8815 9.07031 25.5977 9.05078 26.2617 9.05078C26.431 9.05078 26.6263 9.03125 26.8477 8.99219C27.069 8.95312 27.3229 8.90104 27.6094 8.83594L27.9805 12.0391C27.8893 12.1302 27.7005 12.1758 27.4141 12.1758C27.3099 12.1758 27.2448 12.1432 27.2188 12.0781C26.8932 10.7891 26.1966 10.1445 25.1289 10.1445C24.0872 10.1445 23.5339 10.2617 23.4688 10.4961C23.4167 10.6784 23.3776 10.9128 23.3516 11.1992C23.3255 11.4857 23.3125 11.8307 23.3125 12.2344V19.2852C23.3125 19.6107 23.3255 19.9036 23.3516 20.1641C23.3776 20.4245 23.4167 20.6589 23.4688 20.8672C23.4948 20.9193 23.5859 20.9844 23.7422 21.0625C23.9115 21.1406 24.0872 21.2122 24.2695 21.2773C24.4648 21.3294 24.6016 21.3555 24.6797 21.3555C24.7318 21.3555 24.7578 21.4792 24.7578 21.7266C24.7578 21.8568 24.7448 21.974 24.7188 22.0781C24.6667 22.0781 24.543 22.0716 24.3477 22.0586C24.1523 22.0456 23.8854 22.026 23.5469 22C23.2083 21.974 22.9089 21.9544 22.6484 21.9414C22.388 21.9284 22.1732 21.9219 22.0039 21.9219C21.7695 21.9219 21.4505 21.9349 21.0469 21.9609C20.6432 21.987 20.2591 22.0065 19.8945 22.0195C19.543 22.0456 19.3021 22.0651 19.1719 22.0781Z" fill="black"/>
</svg>
